HIERARCHY
ROOT Hips
{
	OFFSET 0.00000 0.00000 0.00000
	CHANNELS 6 Xposition Yposition Zposition Zrotation Yrotation Xrotation 
	JOINT LHipJoint
	{
		OFFSET 0 0 0
		CHANNELS 3 Zrotation Yrotation Xrotation
		JOINT LeftUpLeg
		{
			OFFSET 1.81424 -1.42316 1.18090
			CHANNELS 3 Zrotation Yrotation Xrotation
			JOINT LeftLeg
			{
				OFFSET 2.15837 -5.93008 0.00000
				CHANNELS 3 Zrotation Yrotation Xrotation
				JOINT LeftFoot
				{
					OFFSET 2.51759 -6.91701 0.00000
					CHANNELS 3 Zrotation Yrotation Xrotation
					JOINT LeftToeBase
					{
						OFFSET 0.18318 -0.50327 1.95113
						CHANNELS 3 Zrotation Yrotation Xrotation
						End Site
						{
							OFFSET 0.00000 -0.00000 1.01524
						}
					}
				}
			}
		}
	}
	JOINT RHipJoint
	{
		OFFSET 0 0 0
		CHANNELS 3 Zrotation Yrotation Xrotation
		JOINT RightUpLeg
		{
			OFFSET -1.43917 -1.42316 1.18090
			CHANNELS 3 Zrotation Yrotation Xrotation
			JOINT RightLeg
			{
				OFFSET -2.25237 -6.18833 0.00000
				CHANNELS 3 Zrotation Yrotation Xrotation
				JOINT RightFoot
				{
					OFFSET -2.46496 -6.77243 0.00000
					CHANNELS 3 Zrotation Yrotation Xrotation
					JOINT RightToeBase
					{
						OFFSET -0.26285 -0.72219 1.76148
						CHANNELS 3 Zrotation Yrotation Xrotation
						End Site
						{
							OFFSET -0.00000 -0.00000 0.95109
						}
					}
				}
			}
		}
	}
	JOINT LowerBack
	{
		OFFSET 0 0 0
		CHANNELS 3 Zrotation Yrotation Xrotation
		JOINT Spine
		{
			OFFSET -0.08725 1.93754 -0.28890
			CHANNELS 3 Zrotation Yrotation Xrotation
			JOINT Spine1
			{
				OFFSET 0.01195 1.94849 0.05967
				CHANNELS 3 Zrotation Yrotation Xrotation
				JOINT Neck
				{
					OFFSET 0 0 0
					CHANNELS 3 Zrotation Yrotation Xrotation
					JOINT Neck1
					{
						OFFSET 0.02762 1.60124 0.34160
						CHANNELS 3 Zrotation Yrotation Xrotation
						JOINT Head
						{
							OFFSET -0.04785 1.66713 -0.24070
							CHANNELS 3 Zrotation Yrotation Xrotation
							End Site
							{
								OFFSET -0.02188 1.68591 -0.11959
							}
						}
					}
				}
				JOINT LeftShoulder
				{
					OFFSET 0 0 0
					CHANNELS 3 Zrotation Yrotation Xrotation
					JOINT LeftArm
					{
						OFFSET 2.59610 1.78696 -0.28854
						CHANNELS 3 Zrotation Yrotation Xrotation
						JOINT LeftForeArm
						{
							OFFSET 5.17853 -0.00000 0.00000
							CHANNELS 3 Zrotation Yrotation Xrotation
							JOINT LeftHand
							{
								OFFSET 3.40399 -0.00000 -0.00000
								CHANNELS 3 Zrotation Yrotation Xrotation
								JOINT LeftFingerBase
								{
									OFFSET 0 0 0
									CHANNELS 3 Zrotation Yrotation Xrotation
									JOINT LeftHandIndex1
									{
										OFFSET 0.70896 -0.00000 -0.00000
										CHANNELS 3 Zrotation Yrotation Xrotation
										End Site
										{
											OFFSET 0.57159 -0.00000 -0.00000
										}
									}
								}
								JOINT LThumb
								{
									OFFSET 0 0 0
									CHANNELS 3 Zrotation Yrotation Xrotation
									End Site
									{
										OFFSET 0.58031 -0.00000 0.58031
									}
								}
							}
						}
					}
				}
				JOINT RightShoulder
				{
					OFFSET 0 0 0
					CHANNELS 3 Zrotation Yrotation Xrotation
					JOINT RightArm
					{
						OFFSET -2.87749 1.55486 -0.73085
						CHANNELS 3 Zrotation Yrotation Xrotation
						JOINT RightForeArm
						{
							OFFSET -5.42351 -0.00000 -0.00000
							CHANNELS 3 Zrotation Yrotation Xrotation
							JOINT RightHand
							{
								OFFSET -3.42066 -0.00000 -0.00000
								CHANNELS 3 Zrotation Yrotation Xrotation
								JOINT RightFingerBase
								{
									OFFSET 0 0 0
									CHANNELS 3 Zrotation Yrotation Xrotation
									JOINT RightHandIndex1
									{
										OFFSET -0.74361 -0.00000 -0.00000
										CHANNELS 3 Zrotation Yrotation Xrotation
										End Site
										{
											OFFSET -0.59952 -0.00000 -0.00000
										}
									}
								}
								JOINT RThumb
								{
									OFFSET 0 0 0
									CHANNELS 3 Zrotation Yrotation Xrotation
									End Site
									{
										OFFSET -0.60867 -0.00000 0.60867
									}
								}
							}
						}
					}
				}
			}
		}
	}
}
MOTION
Frames: 15
Frame Time: .0083333
6.9422 14.7279 -1.0116 0 0 0 0 0 0 -21 0 0 0 0 0 0 0 0 0 0 0 0 0 0 21 0 0 0 0 0 0 0 0 0 0 0 0 0 0 0 0 0 0 0 0 0 0 -16 0 0 21 0 0 11 0 0 0 -8 0 0 0 0 0 0 0 0 0 0 0 0 0 0 0 0 0 0 0 0 8 0 0 0 0 0 0 0 0 0 0 0 0 0 0 0 0 0
6.9422 14.7279 -1.0116 24.5470 86.0909 46.8339 0.0000 0.0000 0.0000 -7.3640 4.3923 -60.8479 9.7293 17.2548 58.5797 0.7871 -12.2835 -16.8541 0.0122 -0.7130 -1.9594 0.0000 0.0000 0.0000 4.7959 6.9438 -63.6222 -12.0201 -18.3992 66.0527 -1.3076 -1.7001 -22.2786 -0.1554 -2.5404 7.0016 -3.9797 1.7964 20.8400 0.4786 1.6574 2.5423 2.3192 1.0036 -9.0119 3.4363 1.2393 -18.3269 -6.1438 1.6305 7.3308 -2.3410 0.4641 5.2497 0.0000 0.0000 0.0000 -85.8276 -23.1170 34.8483 37.5789 -46.5683 -16.6591 -0.0000 0.0000 -27.0701 16.1195 -26.0482 -7.2327 -7.1250 0.0000 -0.0000 -8.2580 3.2549 7.8592 0.0000 0.0000 0.0000 83.8196 25.9889 28.7687 -53.7989 54.4173 -29.2366 0.0000 -0.0000 -19.1839 -8.5034 23.4494 -3.4049 7.1250 -0.0000 -0.0000 12.7844 -6.7793 11.4827
6.9493 14.7277 -0.9949 25.3773 86.1485 47.6334 0.0000 0.0000 0.0000 -7.3344 4.3898 -60.7603 9.7031 17.2395 58.4913 0.7874 -12.1507 -16.8189 0.0278 -1.0771 -2.9610 0.0000 0.0000 0.0000 4.8871 6.8456 -63.6128 -12.0395 -18.4073 66.1140 -1.3162 -1.6257 -22.3185 -0.1450 -2.4539 6.7620 -3.9090 1.8317 21.0196 0.4728 1.7027 2.3825 2.2545 1.0267 -9.2879 3.3563 1.2448 -17.8991 -5.8933 1.6279 7.2418 -2.2474 0.4848 5.1498 -0.0000 -0.0000 0.0000 -85.9725 -22.5659 35.1931 37.5437 -46.5454 -16.6336 -0.0000 0.0000 -26.9063 15.9753 -26.0401 -7.1632 -7.1250 0.0000 -0.0000 -8.3444 3.2846 7.9386 -0.0000 -0.0000 0.0000 83.6936 25.2609 29.0445 -53.8915 54.4493 -29.3120 0.0000 -0.0000 -19.0660 -8.5995 23.2213 -3.4123 7.1250 -0.0000 -0.0000 12.7223 -6.9934 11.3698
6.9560 14.7213 -0.9766 26.3384 86.1230 48.5745 0.0000 0.0000 0.0000 -7.3944 4.4766 -60.7524 9.6999 17.2376 58.4807 0.7986 -12.0291 -16.8801 0.0448 -1.3662 -3.7571 0.0000 0.0000 0.0000 4.8686 6.8566 -63.6563 -12.0828 -18.4254 66.2509 -1.3275 -1.5784 -22.3912 -0.1406 -2.4166 6.6585 -3.9055 1.8662 21.1354 0.4701 1.7402 2.3182 2.2359 1.0464 -9.4248 3.1151 1.2176 -17.7791 -5.6221 1.6149 7.2122 -2.1233 0.4923 5.1157 -0.0000 -0.0000 0.0000 -86.1779 -22.1253 35.4147 37.6815 -46.6347 -16.7336 -0.0000 0.0000 -26.7053 15.8612 -25.8687 -7.0667 -7.1250 0.0000 -0.0000 -8.4006 3.4743 7.9635 -0.0000 -0.0000 0.0000 83.5764 24.8102 29.3111 -53.8157 54.4231 -29.2503 0.0000 -0.0000 -18.8839 -8.5184 23.0275 -3.3531 7.1250 -0.0000 -0.0000 12.7700 -7.1912 11.3643
6.9597 14.7130 -0.9588 27.1399 86.0917 49.3762 0.0000 0.0000 0.0000 -7.4277 4.5554 -60.7837 9.7012 17.2384 58.4849 0.7971 -12.0300 -16.8675 0.0464 -1.3905 -3.8240 0.0000 0.0000 0.0000 4.8232 6.9323 -63.7110 -12.1258 -18.4433 66.3869 -1.3338 -1.3624 -22.3550 -0.1452 -2.4558 6.7672 -3.9211 1.8648 21.1906 0.4639 1.7347 2.3584 2.2390 1.0443 -9.4098 2.9894 1.1667 -18.1700 -5.4824 1.5574 7.3198 -2.0651 0.4644 5.2064 0.0000 0.0000 0.0000 -86.3752 -21.8326 35.4732 37.9702 -46.8202 -16.9438 -0.0000 0.0000 -26.5241 15.8085 -25.7537 -7.0134 -7.1250 0.0000 -0.0000 -8.4240 3.5981 7.9668 0.0000 0.0000 0.0000 83.4825 24.7688 29.6631 -53.3804 54.2711 -28.8966 0.0000 -0.0000 -18.6208 -8.1763 23.3827 -3.2636 7.1250 -0.0000 -0.0000 12.9844 -6.8763 11.6472
6.9624 14.7105 -0.9443 26.9358 86.1489 49.1648 0.0000 0.0000 0.0000 -7.2761 4.5206 -60.7480 9.7067 17.2416 58.5036 0.7825 -12.0850 -16.7584 0.0362 -1.2276 -3.3751 0.0000 0.0000 0.0000 4.9083 6.9927 -63.7151 -12.1625 -18.4585 66.5029 -1.3422 -1.1297 -22.3307 -0.1499 -2.4948 6.8752 -3.9450 1.8124 20.8394 0.5361 1.6956 2.6046 2.3521 1.0208 -8.9462 3.0831 1.2746 -18.0824 -5.6012 1.6846 6.9311 -2.1038 0.5280 5.0781 0.0000 0.0000 0.0000 -86.5121 -21.8298 35.4198 38.1242 -46.9184 -17.0563 -0.0000 0.0000 -26.5302 15.6392 -26.0710 -7.0139 -7.1250 0.0000 -0.0000 -8.5496 3.3034 8.1353 0.0000 0.0000 0.0000 83.3060 25.0734 30.2142 -52.8100 54.0678 -28.4342 0.0000 -0.0000 -18.3728 -8.1687 23.7729 -3.3117 7.1250 -0.0000 -0.0000 12.9937 -6.4953 11.7543
6.9699 14.7079 -0.9322 27.8223 86.2492 50.0267 0.0000 0.0000 0.0000 -7.1324 4.3378 -60.6479 9.7154 17.2467 58.5328 0.7785 -12.0175 -16.7043 0.0353 -1.2129 -3.3348 0.0000 0.0000 0.0000 4.9916 6.9002 -63.6778 -12.1997 -18.4738 66.6203 -1.3672 -0.8873 -22.4406 -0.1523 -2.5147 6.9303 -3.8243 1.7590 21.4126 0.5481 1.6021 2.0476 2.3086 0.9868 -9.8680 3.0199 1.2960 -16.8213 -5.5182 1.7297 6.8428 -2.0625 0.5696 4.8508 0.0000 -0.0000 0.0000 -86.5466 -20.4402 35.5331 38.3973 -47.0912 -17.2560 -0.0000 0.0000 -26.6186 15.3417 -26.3243 -6.9366 -7.1250 0.0000 -0.0000 -8.7474 3.0924 8.3622 0.0000 -0.0000 0.0000 83.2453 23.7616 30.8996 -52.8212 54.0718 -28.4432 0.0000 -0.0000 -18.2397 -8.4861 23.3505 -3.3844 7.1250 -0.0000 -0.0000 12.7937 -6.8779 11.4665
6.9789 14.7014 -0.9223 30.3289 86.2520 52.5019 0.0000 0.0000 0.0000 -7.1700 4.1452 -60.5667 9.7275 17.2538 58.5738 0.7907 -11.8129 -16.7528 0.0598 -1.5778 -4.3403 0.0000 0.0000 0.0000 4.9154 6.7435 -63.6751 -12.2403 -18.4904 66.7483 -1.3904 -0.6718 -22.5472 -0.1485 -2.4833 6.8433 -3.9331 1.7180 21.6414 0.6082 1.5055 1.7688 2.4608 0.9548 -10.3033 2.6617 1.2331 -15.9715 -5.2399 1.6947 6.6630 -1.9198 0.5733 4.6516 0.0000 -0.0000 0.0000 -86.7562 -19.5105 35.5669 38.6331 -47.2389 -17.4289 -0.0000 0.0000 -26.6141 15.3218 -26.3927 -6.9438 -7.1250 0.0000 -0.0000 -8.7644 3.0267 8.3896 0.0000 -0.0000 0.0000 83.0177 22.7823 31.5784 -53.0709 54.1614 -28.6456 0.0000 -0.0000 -18.2425 -8.6802 22.8063 -3.3866 7.1250 -0.0000 -0.0000 12.6676 -7.3924 11.2173
6.9841 14.6984 -0.9147 31.0433 86.1990 53.2191 0.0000 0.0000 0.0000 -7.1952 4.1058 -60.5447 9.7388 17.2603 58.6118 0.7968 -11.7091 -16.7769 0.0691 -1.6962 -4.6669 0.0000 0.0000 0.0000 4.8646 6.7270 -63.7227 -12.2705 -18.5027 66.8438 -1.4070 -0.3825 -22.5758 -0.1445 -2.4501 6.7514 -3.9324 1.7549 21.6762 0.6029 1.5487 1.7101 2.4405 0.9763 -10.3914 2.4208 1.0963 -15.9086 -4.9939 1.5330 6.5965 -1.8176 0.5048 4.6099 0.0000 0.0000 0.0000 -86.9463 -19.0859 35.7531 38.8616 -47.3808 -17.5969 -0.0000 0.0000 -26.6743 15.5035 -26.6390 -7.0896 -7.1250 0.0000 -0.0000 -8.6737 2.7521 8.3447 0.0000 0.0000 0.0000 82.7653 22.3237 32.0223 -53.1670 54.1956 -28.7235 0.0000 -0.0000 -18.3411 -8.9821 22.5703 -3.4718 7.1250 -0.0000 -0.0000 12.4779 -7.5949 10.9900
6.9875 14.6962 -0.9081 30.7292 86.2115 52.9181 0.0000 0.0000 0.0000 -7.1318 4.1070 -60.5555 9.7586 17.2718 58.6783 0.7949 -11.7373 -16.7680 0.0623 -1.6103 -4.4299 0.0000 0.0000 0.0000 4.8991 6.7564 -63.7564 -12.2955 -18.5128 66.9223 -1.4229 -0.0467 -22.5866 -0.1429 -2.4358 6.7117 -3.9524 1.7499 21.7344 0.6814 1.5367 1.5791 2.5410 0.9768 -10.5730 2.3831 1.1151 -15.5409 -5.0311 1.5676 6.4097 -1.8198 0.5253 4.4947 0.0000 0.0000 0.0000 -87.1590 -18.4583 35.7471 39.2582 -47.6242 -17.8893 -0.0000 0.0000 -26.8607 15.5381 -26.7454 -7.1321 -7.1250 0.0000 -0.0000 -8.6611 2.6401 8.3501 0.0000 0.0000 0.0000 82.4884 21.8097 32.6413 -53.2020 54.2080 -28.7519 0.0000 -0.0000 -18.4074 -9.1326 22.1508 -3.4686 7.1250 -0.0000 -0.0000 12.3797 -7.9926 10.8001
6.9932 14.6917 -0.9019 31.5589 86.2282 53.7141 0.0000 0.0000 0.0000 -7.1348 4.0890 -60.5452 9.7871 17.2884 58.7746 0.8000 -11.8283 -16.8368 0.0747 -1.7628 -4.8505 0.0000 0.0000 0.0000 4.8809 6.7274 -63.7295 -12.3250 -18.5247 67.0153 -1.4408 0.1661 -22.6581 -0.1390 -2.4028 6.6203 -3.9845 1.7245 21.7647 0.7128 1.4964 1.5423 2.6060 0.9615 -10.6298 2.5488 1.2140 -15.3623 -5.2022 1.6831 6.2978 -1.8902 0.5794 4.4392 -0.0000 0.0000 0.0000 -87.2555 -17.9103 35.8505 39.8007 -47.9514 -18.2911 -0.0000 0.0000 -27.1801 15.8358 -26.6967 -7.2622 -7.1250 0.0000 -0.0000 -8.4790 2.6441 8.1700 -0.0000 0.0000 0.0000 82.3200 21.3305 33.1625 -53.4872 54.3087 -28.9834 0.0000 -0.0000 -18.3636 -8.7460 21.5334 -3.2319 7.1250 -0.0000 -0.0000 12.6168 -8.6353 10.8531
6.9996 14.6849 -0.8983 31.5815 86.2414 53.7156 0.0000 0.0000 0.0000 -7.0974 4.0997 -60.5838 9.8279 17.3120 58.9118 0.8055 -11.8627 -16.8934 0.0880 -1.9136 -5.2669 0.0000 0.0000 0.0000 4.8878 6.7283 -63.7280 -12.3605 -18.5389 67.1271 -1.4563 0.4197 -22.6983 -0.1371 -2.3866 6.5754 -3.8496 1.7528 21.7129 0.6489 1.5660 1.6421 2.4379 0.9834 -10.4886 2.7555 1.1918 -15.9078 -5.2509 1.6183 6.5597 -1.9448 0.5396 4.6070 -0.0000 -0.0000 0.0000 -87.2396 -17.6807 36.1883 40.4796 -48.3515 -18.7968 -0.0000 0.0000 -27.6295 16.4013 -26.6020 -7.5085 -7.1250 0.0000 -0.0000 -8.1323 2.6530 7.8275 -0.0000 -0.0000 0.0000 82.2432 21.0629 33.3676 -53.7648 54.4055 -29.2089 0.0000 -0.0000 -18.3146 -8.3261 21.1880 -3.0278 7.1250 -0.0000 -0.0000 12.8796 -9.0119 10.9921
7.0046 14.6737 -0.8973 30.8676 86.3066 53.0008 0.0000 0.0000 0.0000 -6.9763 4.1038 -60.6798 9.8794 17.3415 59.0847 0.8135 -11.7850 -16.9412 0.0970 -2.0090 -5.5304 0.0000 0.0000 0.0000 4.9559 6.7395 -63.7720 -12.4027 -18.5557 67.2597 -1.4706 0.6646 -22.7350 -0.1342 -2.3614 6.5054 -3.7329 1.7453 21.4650 0.6701 1.6062 1.8505 2.3875 0.9915 -10.1189 2.7993 1.1490 -16.3120 -5.2258 1.5434 6.5157 -1.9503 0.5017 4.6545 0.0000 0.0000 0.0000 -87.3252 -17.6501 36.2884 41.2004 -48.7652 -19.3372 -0.0000 0.0000 -28.0489 16.7503 -26.5868 -7.6716 -7.1250 0.0000 -0.0000 -7.9216 2.6140 7.6263 0.0000 0.0000 0.0000 82.0433 21.0567 33.7008 -53.8541 54.4364 -29.2816 0.0000 -0.0000 -18.4461 -8.1974 21.3035 -2.9959 7.1250 -0.0000 -0.0000 12.9604 -8.9101 11.0920
7.0107 14.6630 -0.8949 30.6373 86.3703 52.7789 0.0000 0.0000 0.0000 -6.8865 4.1112 -60.7724 9.9256 17.3678 59.2393 0.8278 -11.6838 -17.0375 0.1114 -2.1516 -5.9248 0.0000 0.0000 0.0000 4.9943 6.7660 -63.8180 -12.4450 -18.5725 67.3924 -1.4890 0.8046 -22.8368 -0.1315 -2.3376 6.4397 -3.6556 1.7030 20.9911 0.6816 1.6091 2.2759 2.3658 0.9787 -9.3839 2.8161 1.1351 -17.0741 -5.2061 1.5061 6.3117 -1.9496 0.4802 4.7101 0.0000 -0.0000 0.0000 -87.3905 -17.9856 36.2458 41.9784 -49.1993 -19.9242 -0.0000 0.0000 -28.3835 17.0005 -26.7455 -7.8342 -7.1250 0.0000 -0.0000 -7.7851 2.4142 7.5209 0.0000 -0.0000 0.0000 81.8730 21.4448 34.0567 -54.0335 54.4982 -29.4276 0.0000 -0.0000 -18.7299 -7.9797 21.0050 -2.8765 7.1250 -0.0000 -0.0000 13.0977 -9.2214 11.1323
7.0177 14.6585 -0.8926 30.9950 86.2973 53.1462 0.0000 0.0000 0.0000 -6.9591 4.1785 -60.8179 9.9608 17.3877 59.3572 0.8349 -11.6932 -17.1001 0.1124 -2.1618 -5.9529 0.0000 0.0000 0.0000 4.8879 6.8469 -63.8433 -12.4803 -18.5864 67.5033 -1.4870 0.8578 -22.8054 -0.1268 -2.2950 6.3217 -3.6135 1.7355 20.9496 0.5778 1.6567 2.3609 2.2154 0.9957 -9.2658 2.8612 1.0498 -17.6618 -5.0989 1.3668 6.4524 -1.9367 0.4120 4.8400 0.0000 -0.0000 0.0000 -87.3555 -17.6739 36.3699 43.1147 -49.8107 -20.7883 -0.0000 0.0000 -28.7447 17.4855 -26.7895 -8.0811 -7.1250 0.0000 -0.0000 -7.4984 2.2918 7.2556 0.0000 -0.0000 0.0000 81.8484 21.2308 34.3469 -54.2671 54.5779 -29.6178 0.0000 -0.0000 -18.8721 -7.7508 20.5752 -2.7386 7.1250 -0.0000 -0.0000 13.2441 -9.6612 11.1436
